<?xml version="1.0" encoding="utf-8"?>
<!-- Generator: Adobe Illustrator 23.0.1, SVG Export Plug-In . SVG Version: 6.00 Build 0)  -->
<svg version="1.1" xmlns="http://www.w3.org/2000/svg" xmlns:xlink="http://www.w3.org/1999/xlink" x="0px" y="0px"
	 viewBox="0 0 347.17 80" style="enable-background:new 0 0 347.17 80;" xml:space="preserve">
<style type="text/css">
	.st0{display:none;}
	.st1{display:inline;}
	.st2{font-family:'SamsungSharpSans-Bold';}
	.st3{font-size:73px;}
	.st4{letter-spacing:7;}
	.st5{letter-spacing:10;}
	.st6{letter-spacing:5;}
	.st7{letter-spacing:9;}
</style>
<g id="Layer_2" class="st0">
	<text transform="matrix(1 0 0 1 4.7623 66.3489)" class="st1"><tspan x="0" y="0" class="st2 st3 st4">M</tspan><tspan x="65.48" y="0" class="st2 st3 st5">a</tspan><tspan x="125.27" y="0" class="st2 st3 st6">n</tspan><tspan x="176.29" y="0" class="st2 st3 st7">a</tspan><tspan x="234.4" y="0" class="st2 st3 st6">bu</tspan></text>
</g>
<g id="Layer_2_copy">
	<g>
		<path d="M7.83,13.06h9.85l16.13,22.41L50.6,13.06h9.42v53.29h-9.93V28.97L33.74,51.02L17.76,29.34v37.01H7.83V13.06z"/>
		<path d="M71.7,45.03c0-14.16,10.37-22.26,21.17-22.26c5.62,0,10.58,2.26,13.72,5.99v-5.11h9.85v42.7h-9.85V60.8
			c-3.14,4.01-8.25,6.42-13.87,6.42C82.43,67.22,71.7,59.05,71.7,45.03z M107.11,44.89c0-7.3-5.4-13.14-12.77-13.14
			c-7.3,0-12.92,5.77-12.92,13.14c0,7.45,5.62,13.29,12.92,13.29C101.7,58.17,107.11,52.26,107.11,44.89z"/>
		<path d="M133.24,23.65h9.78v5.26c2.85-3.72,7.23-6.13,12.77-6.13c10.73,0,16.94,6.64,16.94,18.25v25.33h-10V42.04
			c0-6.64-3.21-10.73-9.64-10.73c-5.62,0-10,4.09-10,11.61v23.43h-9.85V23.65z"/>
		<path d="M182.88,45.03c0-14.16,10.37-22.26,21.17-22.26c5.62,0,10.58,2.26,13.72,5.99v-5.11h9.85v42.7h-9.85V60.8
			c-3.14,4.01-8.25,6.42-13.87,6.42C193.61,67.22,182.88,59.05,182.88,45.03z M218.28,44.89c0-7.3-5.4-13.14-12.77-13.14
			c-7.3,0-12.92,5.77-12.92,13.14c0,7.45,5.62,13.29,12.92,13.29C212.88,58.17,218.28,52.26,218.28,44.89z"/>
		<path d="M252.15,60.8v5.55h-9.78V12.33h9.85v16.72c2.99-3.8,8.03-6.28,13.8-6.28c10.73,0,21.02,8.1,21.02,22.26
			c0,14.02-10.66,22.19-20.88,22.19C260.33,67.22,255.29,64.89,252.15,60.8z M277.34,44.89c0-7.37-5.62-13.14-12.85-13.14
			c-7.3,0-12.7,5.84-12.7,13.14c0,7.37,5.4,13.29,12.7,13.29C271.72,58.17,277.34,52.33,277.34,44.89z"/>
		<path d="M335.45,66.35h-9.78v-4.89c-2.7,3.58-6.79,5.77-12.26,5.77c-10.22,0-16.43-6.64-16.43-18.25V23.65l10-4.82v29.12
			c0,6.64,2.92,10.73,9.13,10.73c5.47,0,9.49-4.09,9.49-11.61V23.65l9.86-4.82V66.35z"/>
	</g>
</g>
</svg>
